<svg width="115" height="30" viewBox="0 0 115 30" fill="none" xmlns="http://www.w3.org/2000/svg">
<g clip-path="url(#clip0_290_1195)">
<path d="M15 0.406616H14.9992C6.93973 0.406616 0.40625 6.9401 0.40625 14.9996V15.0004C0.40625 23.0598 6.93973 29.5933 14.9992 29.5933H15C23.0595 29.5933 29.593 23.0598 29.593 15.0004V14.9996C29.593 6.9401 23.0595 0.406616 15 0.406616Z" fill="url(#paint0_linear_290_1195)"/>
<path d="M12.8872 19.197L13.2077 19.1319C13.2974 19.1139 13.3782 19.0654 13.4362 18.9946C13.4942 18.9238 13.5259 18.8351 13.5259 18.7435C13.5259 18.652 13.4942 18.5633 13.4362 18.4925C13.3782 18.4217 13.2974 18.3732 13.2077 18.3552L12.8872 18.2901C12.4921 18.2099 12.1294 18.0152 11.8443 17.7301C11.5592 17.445 11.3644 17.0823 11.2842 16.6871L11.2192 16.3667C11.2012 16.2769 11.1527 16.1962 11.0819 16.1382C11.0111 16.0801 10.9224 16.0485 10.8308 16.0485C10.7393 16.0485 10.6506 16.0801 10.5798 16.1382C10.509 16.1962 10.4605 16.2769 10.4425 16.3667L10.3774 16.6871C10.2972 17.0823 10.1025 17.445 9.81737 17.7301C9.53228 18.0152 9.16953 18.2099 8.7744 18.2901L8.45397 18.3552C8.36422 18.3732 8.28347 18.4217 8.22545 18.4925C8.16744 18.5633 8.13574 18.652 8.13574 18.7435C8.13574 18.8351 8.16744 18.9238 8.22545 18.9946C8.28347 19.0654 8.36422 19.1139 8.45397 19.1319L8.7744 19.197C9.16953 19.2771 9.53228 19.4719 9.81737 19.757C10.1025 20.0421 10.2972 20.4048 10.3774 20.7999L10.4425 21.1204C10.4605 21.2101 10.509 21.2909 10.5798 21.3489C10.6506 21.4069 10.7393 21.4386 10.8308 21.4386C10.9224 21.4386 11.0111 21.4069 11.0819 21.3489C11.1527 21.2909 11.2012 21.2101 11.2192 21.1204L11.2842 20.7999C11.3644 20.4048 11.5592 20.0421 11.8443 19.757C12.1294 19.4719 12.4921 19.2771 12.8872 19.197Z" fill="white"/>
<path d="M20.654 13.3941L21.8333 13.155C21.951 13.1309 22.0568 13.0669 22.1327 12.9739C22.2087 12.8808 22.2502 12.7643 22.2502 12.6442C22.2502 12.5241 22.2087 12.4076 22.1327 12.3146C22.0568 12.2215 21.951 12.1575 21.8333 12.1335L20.654 11.8944C20.0859 11.7791 19.5643 11.499 19.1544 11.0891C18.7445 10.6792 18.4644 10.1576 18.3491 9.58948L18.11 8.4102C18.0864 8.29228 18.0226 8.18618 17.9296 8.10995C17.8365 8.03372 17.72 7.99207 17.5997 7.99207C17.4794 7.99207 17.3629 8.03372 17.2698 8.10995C17.1768 8.18618 17.113 8.29228 17.0894 8.4102L16.8502 9.58948C16.7351 10.1576 16.455 10.6793 16.0451 11.0892C15.6352 11.4991 15.1135 11.7792 14.5454 11.8944L13.3661 12.1335C13.2484 12.1575 13.1426 12.2215 13.0667 12.3146C12.9907 12.4076 12.9492 12.5241 12.9492 12.6442C12.9492 12.7643 12.9907 12.8808 13.0667 12.9739C13.1426 13.0669 13.2484 13.1309 13.3661 13.155L14.5454 13.3941C15.1135 13.5093 15.6352 13.7893 16.0451 14.1992C16.455 14.6092 16.7351 15.1308 16.8502 15.699L17.0894 16.8782C17.113 16.9962 17.1768 17.1022 17.2698 17.1785C17.3629 17.2547 17.4794 17.2964 17.5997 17.2964C17.72 17.2964 17.8365 17.2547 17.9296 17.1785C18.0226 17.1022 18.0864 16.9962 18.11 16.8782L18.3491 15.699C18.4644 15.1308 18.7445 14.6093 19.1544 14.1994C19.5643 13.7894 20.0859 13.5094 20.654 13.3941Z" fill="white"/>
</g>
<path d="M38.0498 22V10.87H41.0948V12.466C41.3468 11.976 41.7388 11.542 42.2708 11.164C42.8028 10.786 43.4608 10.597 44.2448 10.597C45.1268 10.597 45.8058 10.765 46.2818 11.101C46.7718 11.437 47.1288 11.892 47.3528 12.466C47.6328 11.934 48.0668 11.493 48.6548 11.143C49.2428 10.779 49.9358 10.597 50.7338 10.597C51.9378 10.597 52.8548 10.94 53.4848 11.626C54.1148 12.298 54.4298 13.306 54.4298 14.65V22H51.1958V15.448C51.1958 14.664 51.0698 14.111 50.8178 13.789C50.5798 13.453 50.1878 13.285 49.6418 13.285C49.3198 13.285 49.0188 13.376 48.7388 13.558C48.4728 13.726 48.2558 13.971 48.0878 14.293C47.9338 14.615 47.8568 15 47.8568 15.448V22H44.6228V15.448C44.6228 14.664 44.4968 14.111 44.2448 13.789C44.0068 13.453 43.6078 13.285 43.0478 13.285C42.7258 13.285 42.4318 13.376 42.1658 13.558C41.8998 13.726 41.6828 13.971 41.5148 14.293C41.3608 14.615 41.2838 15 41.2838 15.448V22H38.0498Z" fill="black"/>
<path d="M59.2598 22.273C58.4618 22.273 57.7758 22.119 57.2018 21.811C56.6418 21.503 56.2148 21.083 55.9208 20.551C55.6268 20.005 55.4798 19.403 55.4798 18.745C55.4798 17.639 55.8158 16.792 56.4878 16.204C57.1738 15.616 58.2028 15.322 59.5748 15.322H62.7248V14.86C62.7248 14.188 62.5638 13.726 62.2418 13.474C61.9338 13.222 61.4998 13.096 60.9398 13.096C60.4078 13.096 60.0158 13.18 59.7638 13.348C59.5118 13.502 59.3718 13.761 59.3438 14.125H56.1098C56.1518 13.453 56.3618 12.851 56.7398 12.319C57.1318 11.787 57.6848 11.367 58.3988 11.059C59.1268 10.751 60.0088 10.597 61.0448 10.597C62.0248 10.597 62.8858 10.744 63.6278 11.038C64.3698 11.332 64.9438 11.808 65.3498 12.466C65.7698 13.11 65.9798 13.978 65.9798 15.07V19.165C65.9798 19.753 65.9938 20.271 66.0218 20.719C66.0498 21.153 66.0918 21.58 66.1478 22H63.0608C63.0468 21.762 63.0258 21.552 62.9978 21.37C62.9838 21.188 62.9768 20.964 62.9768 20.698C62.6408 21.146 62.1718 21.524 61.5698 21.832C60.9818 22.126 60.2118 22.273 59.2598 22.273ZM60.3098 19.984C60.7718 19.984 61.1848 19.9 61.5488 19.732C61.9128 19.564 62.1998 19.312 62.4098 18.976C62.6198 18.626 62.7248 18.234 62.7248 17.8V17.338H60.2048C59.7288 17.338 59.3718 17.464 59.1338 17.716C58.9098 17.968 58.7978 18.255 58.7978 18.577C58.7978 18.997 58.9098 19.34 59.1338 19.606C59.3718 19.858 59.7638 19.984 60.3098 19.984Z" fill="black"/>
<path d="M72.3864 26.473C71.1824 26.473 70.2164 26.333 69.4884 26.053C68.7744 25.773 68.2494 25.36 67.9134 24.814C67.5914 24.282 67.4024 23.659 67.3464 22.945H70.6434C70.7134 23.197 70.8674 23.435 71.1054 23.659C71.3574 23.883 71.7844 23.995 72.3864 23.995C73.2264 23.995 73.8564 23.799 74.2764 23.407C74.7104 23.029 74.9274 22.42 74.9274 21.58V20.383C74.5494 20.929 74.0734 21.349 73.4994 21.643C72.9394 21.923 72.3444 22.063 71.7144 22.063C70.7484 22.063 69.9014 21.853 69.1734 21.433C68.4594 21.013 67.9064 20.39 67.5144 19.564C67.1224 18.738 66.9264 17.695 66.9264 16.435V16.015C66.9264 14.839 67.1154 13.852 67.4934 13.054C67.8854 12.242 68.4384 11.633 69.1524 11.227C69.8804 10.807 70.7344 10.597 71.7144 10.597C72.5824 10.597 73.3034 10.786 73.8774 11.164C74.4654 11.528 74.8994 11.934 75.1794 12.382V10.87H78.1614V21.265C78.1614 23.001 77.6924 24.303 76.7544 25.171C75.8304 26.039 74.3744 26.473 72.3864 26.473ZM72.4914 19.396C72.9534 19.396 73.3664 19.291 73.7304 19.081C74.0944 18.871 74.3814 18.57 74.5914 18.178C74.8154 17.772 74.9274 17.296 74.9274 16.75V15.7C74.9274 15.168 74.8154 14.727 74.5914 14.377C74.3814 14.013 74.0944 13.74 73.7304 13.558C73.3664 13.362 72.9534 13.264 72.4914 13.264C71.8334 13.264 71.2944 13.495 70.8744 13.957C70.4544 14.405 70.2444 15.091 70.2444 16.015V16.435C70.2444 17.401 70.4544 18.136 70.8744 18.64C71.3084 19.144 71.8474 19.396 72.4914 19.396Z" fill="black"/>
<path d="M79.8464 22V10.87H83.0804V22H79.8464ZM81.4634 9.81996C80.8614 9.81996 80.3924 9.66596 80.0564 9.35796C79.7344 9.03596 79.5734 8.62996 79.5734 8.13996C79.5734 7.64996 79.7344 7.25096 80.0564 6.94296C80.3924 6.62096 80.8614 6.45996 81.4634 6.45996C82.0654 6.45996 82.5274 6.62096 82.8494 6.94296C83.1854 7.25096 83.3534 7.64996 83.3534 8.13996C83.3534 8.62996 83.1854 9.03596 82.8494 9.35796C82.5274 9.66596 82.0654 9.81996 81.4634 9.81996Z" fill="black"/>
<path d="M90.0191 22.273C88.9271 22.273 87.9541 22.063 87.1001 21.643C86.2461 21.223 85.5741 20.586 85.0841 19.732C84.5941 18.878 84.3491 17.814 84.3491 16.54V16.12C84.3491 14.944 84.6011 13.943 85.1051 13.117C85.6231 12.291 86.3091 11.668 87.1631 11.248C88.0311 10.814 88.9831 10.597 90.0191 10.597C91.1391 10.597 92.0771 10.793 92.8331 11.185C93.5891 11.563 94.1701 12.074 94.5761 12.718C94.9821 13.362 95.2131 14.076 95.2691 14.86H91.9301C91.8321 14.356 91.6291 13.971 91.3211 13.705C91.0271 13.425 90.5931 13.285 90.0191 13.285C89.5711 13.285 89.1651 13.39 88.8011 13.6C88.4511 13.81 88.1711 14.125 87.9611 14.545C87.7651 14.951 87.6671 15.476 87.6671 16.12V16.54C87.6671 17.226 87.7651 17.793 87.9611 18.241C88.1571 18.689 88.4301 19.025 88.7801 19.249C89.1301 19.459 89.5431 19.564 90.0191 19.564C90.5091 19.564 90.9221 19.438 91.2581 19.186C91.6081 18.92 91.8321 18.528 91.9301 18.01H95.2691C95.2131 18.878 94.9611 19.634 94.5131 20.278C94.0651 20.922 93.4561 21.419 92.6861 21.769C91.9301 22.105 91.0411 22.273 90.0191 22.273Z" fill="black"/>
<path d="M95.3572 22L100.733 7.29996H104.513L109.868 22H105.878L104.87 19.186H99.9562L98.9482 22H95.3572ZM101.027 16.288H103.799L102.413 11.92L101.027 16.288Z" fill="black"/>
<path d="M111.127 22V7.29996H114.907V22H111.127Z" fill="black"/>
<defs>
<linearGradient id="paint0_linear_290_1195" x1="29.593" y1="15" x2="0.0851957" y2="11.7602" gradientUnits="userSpaceOnUse">
<stop stop-color="#8D65E9"/>
<stop offset="0.483" stop-color="#5391E4"/>
<stop offset="1" stop-color="#6BCD94"/>
</linearGradient>
<clipPath id="clip0_290_1195">
<rect width="30" height="30" fill="white"/>
</clipPath>
</defs>
</svg>
